<svg width="515" height="97" viewBox="0 0 515 97" fill="none" xmlns="http://www.w3.org/2000/svg">
<g filter="url(#filter0_ii_220_5)">
<path d="M60.1485 48.147L69.4672 31.7686H33.3334C31.6354 31.7686 29.9414 31.935 28.2758 32.2656L27.1101 32.497C17.7026 34.3641 9.58593 40.2604 4.90205 48.63L3.67103 50.8297L3.56481 51.0993C1.2314 57.0226 0.536501 63.465 1.55313 69.7496L1.73939 70.5604C3.18284 76.8437 6.45964 82.5568 11.1543 86.9753C15.6094 91.5213 21.5035 94.4824 27.8151 95.3057L28.713 95.4533C34.8226 96.4576 41.0931 95.465 46.5939 92.623L47.6699 92.0767C52.9765 89.3826 57.4763 85.3332 60.7132 80.3392L65.2496 72.4295C65.6815 71.6765 65.1379 70.738 64.2698 70.738H46.5882C45.7792 70.738 45.0911 71.3283 44.9681 72.1279C44.9234 72.4183 44.793 72.6888 44.5936 72.9047L43.7125 73.8583C42.7618 74.8872 41.6423 75.7462 40.4023 76.3981L39.4946 76.8753C38.8638 77.2069 38.1999 77.4712 37.5138 77.6638C33.0492 78.917 28.2621 78.2105 24.3499 75.7209L24.2853 75.6798L23.496 74.9281C20.2132 71.8016 18.3552 67.4662 18.3552 62.9327C18.3552 62.0234 18.4973 61.1197 18.7765 60.2544L18.9986 59.5658C20.3789 55.287 23.6045 51.8521 27.7883 50.206L28.1071 50.0806C29.2203 49.6426 30.406 49.4178 31.6023 49.4178H57.6801C57.898 49.4178 58.0338 49.6542 57.924 49.8424L49.0314 65.087C48.7019 65.6517 49.1093 66.361 49.7631 66.361H86.7416C87.649 66.361 88.555 66.2899 89.4513 66.1484C95.5806 65.1806 101.308 62.4878 105.963 58.385L107.166 57.3246L107.334 57.1405C111.946 52.0756 115.193 45.9191 116.767 39.2518C117.599 32.6927 116.628 26.031 113.959 19.9819L113.802 19.6259L112.748 17.8428C108.444 10.566 101.472 5.25419 93.3142 3.03645L91.4934 2.54148C84.6431 0.897408 77.4357 1.66084 71.0818 4.70354L70.8792 4.80058L70.2466 5.13295C65.2029 7.78301 60.9422 11.7091 57.8894 16.5197L51.5357 26.6856H71.8675L74.5021 23.6119C76.6119 21.1505 79.6145 19.63 82.8472 19.386C84.4598 19.2643 86.0816 19.3945 87.6541 19.7719L89.1184 20.1233C93.3179 21.1312 96.7005 24.2341 98.0662 28.3312L98.2872 28.9941C98.8374 30.6447 99.1179 32.3732 99.1179 34.1131V35.5044C99.1179 38.0344 98.3333 40.5022 96.8724 42.5677C95.6628 44.2778 94.0076 45.6235 92.0867 46.4587L91.9629 46.5126C89.6969 47.4978 87.2542 48.0122 84.7833 48.0245L60.1485 48.147Z" fill="url(#paint0_linear_220_5)"/>
</g>
<path d="M149.588 41.8999C149.588 39.148 150.075 36.4595 151.048 33.8346C152.065 31.1673 153.525 28.7541 155.43 26.5949C157.336 24.3933 159.664 22.6575 162.416 21.3874C165.168 20.0749 168.301 19.4187 171.815 19.4187C175.964 19.4187 179.542 20.3289 182.548 22.1494C185.596 23.9699 187.861 26.3409 189.343 29.2621L182.611 33.8981C181.849 32.2046 180.854 30.871 179.626 29.8972C178.399 28.8811 177.086 28.1825 175.689 27.8015C174.292 27.3781 172.916 27.1664 171.561 27.1664C169.359 27.1664 167.433 27.611 165.782 28.5001C164.173 29.3892 162.818 30.5534 161.718 31.9929C160.617 33.4324 159.791 35.0412 159.241 36.8194C158.733 38.5976 158.479 40.3758 158.479 42.1539C158.479 44.1438 158.796 46.0702 159.431 47.933C160.066 49.7535 160.955 51.3835 162.099 52.823C163.284 54.2201 164.681 55.3421 166.29 56.1888C167.941 56.9933 169.741 57.3955 171.688 57.3955C173.085 57.3955 174.504 57.1626 175.943 56.6969C177.382 56.2312 178.716 55.4903 179.944 54.4742C181.172 53.4581 182.124 52.1456 182.802 50.5368L189.978 54.6647C189.089 56.9086 187.628 58.8138 185.596 60.3803C183.606 61.9468 181.362 63.1322 178.864 63.9366C176.366 64.741 173.89 65.1432 171.434 65.1432C168.216 65.1432 165.274 64.487 162.607 63.1745C159.939 61.8197 157.632 60.0416 155.684 57.84C153.779 55.5961 152.276 53.0982 151.175 50.3463C150.117 47.552 149.588 44.7365 149.588 41.8999ZM195.855 64.7622V19.6727H215.796C217.871 19.6727 219.776 20.0961 221.512 20.9428C223.29 21.7896 224.814 22.9327 226.084 24.3722C227.397 25.8116 228.392 27.4205 229.069 29.1986C229.789 30.9768 230.149 32.7973 230.149 34.6602C230.149 36.5654 229.81 38.4071 229.133 40.1852C228.497 41.9211 227.566 43.4452 226.338 44.7577C225.11 46.0702 223.671 47.0863 222.02 47.806L232.308 64.7622H222.655L213.383 49.6477H204.619V64.7622H195.855ZM204.619 41.9634H215.606C216.706 41.9634 217.68 41.6459 218.527 41.0108C219.374 40.3334 220.051 39.4443 220.559 38.3436C221.067 37.2428 221.321 36.015 221.321 34.6602C221.321 33.2207 221.025 31.9718 220.432 30.9133C219.839 29.8125 219.077 28.9446 218.146 28.3096C217.257 27.6745 216.283 27.357 215.225 27.357H204.619V41.9634ZM240.875 19.6727L251.989 40.8838L263.293 19.6727H272.755L256.371 49.0126V64.7622H247.67V48.8856L231.349 19.6727H240.875ZM277.719 64.7622V19.6727H296.834C298.909 19.6727 300.814 20.0961 302.55 20.9428C304.286 21.7896 305.789 22.9327 307.059 24.3722C308.371 25.8116 309.387 27.4205 310.107 29.1986C310.827 30.9768 311.187 32.7973 311.187 34.6602C311.187 37.2004 310.594 39.6137 309.409 41.8999C308.223 44.1861 306.593 46.049 304.519 47.4885C302.444 48.928 299.988 49.6477 297.152 49.6477H286.483V64.7622H277.719ZM286.483 41.9634H296.644C297.702 41.9634 298.655 41.6671 299.502 41.0743C300.348 40.4816 301.026 39.6349 301.534 38.5341C302.042 37.391 302.296 36.0997 302.296 34.6602C302.296 33.0937 301.999 31.7601 301.407 30.6593C300.856 29.5585 300.115 28.7329 299.184 28.1825C298.295 27.6321 297.321 27.357 296.263 27.357H286.483V41.9634ZM351.008 27.357H336.592V64.7622H327.892V27.357H313.476V19.6727H351.008V27.357ZM356.606 64.7622V19.6727H365.37V64.7622H356.606ZM394.019 65.0797C390.717 65.0797 387.711 64.4447 385.001 63.1745C382.334 61.8621 380.027 60.1262 378.079 57.967C376.174 55.8078 374.692 53.3734 373.634 50.6638C372.575 47.9119 372.046 45.0964 372.046 42.2174C372.046 39.2115 372.597 36.3537 373.697 33.6441C374.84 30.8921 376.386 28.4577 378.333 26.3409C380.323 24.1816 382.652 22.4881 385.319 21.2603C388.029 19.9902 390.992 19.3552 394.21 19.3552C397.47 19.3552 400.434 20.0114 403.101 21.3239C405.81 22.6363 408.118 24.3933 410.023 26.5949C411.928 28.7964 413.41 31.252 414.468 33.9616C415.527 36.6712 416.056 39.4655 416.056 42.3445C416.056 45.3081 415.506 48.1659 414.405 50.9178C413.304 53.6274 411.759 56.0618 409.769 58.2211C407.821 60.3379 405.493 62.0103 402.783 63.2381C400.116 64.4658 397.195 65.0797 394.019 65.0797ZM394.083 57.332C396.2 57.332 398.084 56.9086 399.735 56.0618C401.386 55.1727 402.762 54.0085 403.863 52.569C404.964 51.0872 405.789 49.4572 406.34 47.679C406.932 45.8585 407.229 44.038 407.229 42.2174C407.229 40.2699 406.911 38.3859 406.276 36.5654C405.683 34.7449 404.815 33.136 403.672 31.7389C402.572 30.3418 401.196 29.2198 399.544 28.3731C397.936 27.5263 396.115 27.1029 394.083 27.1029C391.924 27.1029 390.018 27.5475 388.367 28.4366C386.758 29.2833 385.404 30.4476 384.303 31.9294C383.202 33.3689 382.355 34.9777 381.763 36.7559C381.212 38.5341 380.937 40.3546 380.937 42.2174C380.937 44.165 381.233 46.049 381.826 47.8695C382.419 49.69 383.266 51.2989 384.366 52.696C385.51 54.0931 386.886 55.2151 388.494 56.0618C390.145 56.9086 392.008 57.332 394.083 57.332ZM393.194 48.06H401.45L416.31 64.7622H408.054L393.194 48.06ZM441.832 65.0797C438.234 65.0797 435.164 64.487 432.624 63.3016C430.126 62.0738 428.094 60.4014 426.527 58.2846C425.003 56.1677 423.881 53.7756 423.161 51.1083C422.442 48.3987 422.082 45.5833 422.082 42.662V19.6727H430.846V42.662C430.846 44.5248 431.015 46.3454 431.354 48.1235C431.735 49.8594 432.349 51.4259 433.195 52.823C434.042 54.2201 435.164 55.3209 436.561 56.1253C437.958 56.9298 439.694 57.332 441.769 57.332C443.886 57.332 445.643 56.9298 447.04 56.1253C448.479 55.2786 449.601 54.1566 450.406 52.7595C451.252 51.3624 451.866 49.7959 452.247 48.06C452.628 46.2819 452.819 44.4825 452.819 42.662V19.6727H461.519V42.662C461.519 45.7526 461.138 48.6528 460.376 51.3624C459.656 54.072 458.492 56.464 456.883 58.5386C455.317 60.5708 453.285 62.1796 450.787 63.3651C448.289 64.5082 445.304 65.0797 441.832 65.0797ZM501.655 57.0779V64.7622H470.347V19.6727H501.084V27.357H479.11V38.2165H498.099V45.3293H479.11V57.0779H501.655Z" fill="url(#paint1_linear_220_5)"/>
<defs>
<filter id="filter0_ii_220_5" x="1.09766" y="-0.677583" width="118.052" height="97.0702" filterUnits="userSpaceOnUse" color-interpolation-filters="sRGB">
<feFlood flood-opacity="0" result="BackgroundImageFix"/>
<feBlend mode="normal" in="SourceGraphic" in2="BackgroundImageFix" result="shape"/>
<feColorMatrix in="SourceAlpha" type="matrix" values="0 0 0 0 0 0 0 0 0 0 0 0 0 0 0 0 0 0 127 0" result="hardAlpha"/>
<feOffset dx="2.09287" dy="-2.37192"/>
<feGaussianBlur stdDeviation="1.7022"/>
<feComposite in2="hardAlpha" operator="arithmetic" k2="-1" k3="1"/>
<feColorMatrix type="matrix" values="0 0 0 0 0.352941 0 0 0 0 0.352941 0 0 0 0 0.352941 0 0 0 1 0"/>
<feBlend mode="normal" in2="shape" result="effect1_innerShadow_220_5"/>
<feColorMatrix in="SourceAlpha" type="matrix" values="0 0 0 0 0 0 0 0 0 0 0 0 0 0 0 0 0 0 127 0" result="hardAlpha"/>
<feOffset dx="0.697623" dy="0.558099"/>
<feGaussianBlur stdDeviation="0.79529"/>
<feComposite in2="hardAlpha" operator="arithmetic" k2="-1" k3="1"/>
<feColorMatrix type="matrix" values="0 0 0 0 0.956863 0 0 0 0 0.956863 0 0 0 0 0.956863 0 0 0 1 0"/>
<feBlend mode="normal" in2="effect1_innerShadow_220_5" result="effect2_innerShadow_220_5"/>
</filter>
<linearGradient id="paint0_linear_220_5" x1="104.853" y1="26.5794" x2="19.5334" y2="89.7143" gradientUnits="userSpaceOnUse">
<stop stop-color="#F4F4F4"/>
<stop offset="1" stop-color="#8E8E8E"/>
</linearGradient>
<linearGradient id="paint1_linear_220_5" x1="331.171" y1="4.76221" x2="331.171" y2="48.5608" gradientUnits="userSpaceOnUse">
<stop stop-color="#F4F4F4"/>
<stop offset="1" stop-color="#8E8E8E"/>
</linearGradient>
</defs>
</svg>
