<svg width="521" height="97" viewBox="0 0 521 97" fill="none" xmlns="http://www.w3.org/2000/svg">
<g filter="url(#filter0_ii_220_2)">
<path d="M59.6685 47.7628L68.9129 31.5151H33.0674C31.3829 31.5151 29.7025 31.6802 28.0502 32.0081L26.8938 32.2376C17.5613 34.0899 9.50944 39.9392 4.86293 48.242L3.64174 50.4241L3.53636 50.6916C1.22158 56.5676 0.53222 62.9586 1.54074 69.1931L1.72551 69.9974C3.15744 76.2305 6.4081 81.898 11.0653 86.2812C15.4848 90.7909 21.332 93.7285 27.5932 94.5452L28.4839 94.6916C34.5447 95.6879 40.7652 94.7033 46.2221 91.8839L47.2895 91.342C52.5537 88.6694 57.0177 84.6523 60.2288 79.6981L64.729 71.8515C65.1574 71.1045 64.6181 70.1735 63.757 70.1735H46.2357C45.4221 70.1735 44.7301 70.7672 44.6064 71.5714C44.5638 71.8478 44.4441 72.1065 44.2609 72.3177L43.9523 72.6736C42.5794 74.2571 40.8859 75.5311 38.984 76.4115L38.4499 76.6587C38.309 76.7239 38.1632 76.7777 38.0138 76.8197L37.2876 77.0235C32.8121 78.2798 28.0133 77.5716 24.0915 75.0759L23.3085 74.3302C20.0519 71.2286 18.2087 66.9278 18.2087 62.4305C18.2087 61.5285 18.3497 60.632 18.6266 59.7735L18.847 59.0905C20.2162 54.8458 23.4161 51.4384 27.5666 49.8054L27.8828 49.681C28.9872 49.2465 30.1634 49.0234 31.3501 49.0234H57.2198C57.4361 49.0234 57.5708 49.2579 57.4618 49.4447L48.6401 64.5676C48.3133 65.1279 48.7174 65.8314 49.3661 65.8314H86.0494C86.9496 65.8314 87.8484 65.7609 88.7376 65.6205C94.8179 64.6605 100.499 61.9892 105.117 57.9191L106.311 56.8672L106.477 56.6846C111.053 51.66 114.274 45.5527 115.835 38.9386C116.66 32.4318 115.697 25.8232 113.05 19.8224L112.894 19.4693L111.848 17.7005C107.579 10.4816 100.663 5.21226 92.5696 3.01222L90.7634 2.5212C83.9677 0.890248 76.8178 1.64759 70.5146 4.66601L70.3136 4.76227L69.6861 5.09199C64.6827 7.7209 60.4559 11.6157 57.4274 16.3878L51.1244 26.4726H71.2941L73.9076 23.4235C76.0006 20.9817 78.9793 19.4733 82.1861 19.2313C83.7859 19.1106 85.3947 19.2397 86.9547 19.6141L88.4073 19.9628C92.5733 20.9626 95.9289 24.0407 97.2837 28.1051L97.5029 28.7627C98.0487 30.4001 98.327 32.1149 98.327 33.8408V35.2211C98.327 37.7309 97.5487 40.179 96.0994 42.228C94.8995 43.9244 93.2575 45.2595 91.3519 46.088L91.2291 46.1414C88.9811 47.1188 86.558 47.629 84.1068 47.6412L59.6685 47.7628Z" fill="url(#paint0_linear_220_2)"/>
</g>
<path d="M149.005 41.7118C149.005 38.9086 149.501 36.1701 150.493 33.4963C151.528 30.7793 153.016 28.3211 154.957 26.1217C156.897 23.8791 159.269 22.111 162.073 20.8172C164.876 19.4803 168.067 18.8118 171.647 18.8118C175.873 18.8118 179.517 19.739 182.579 21.5934C185.684 23.4479 187.991 25.8629 189.501 28.8387L182.644 33.561C181.868 31.8359 180.854 30.4774 179.603 29.4855C178.353 28.4505 177.016 27.7389 175.593 27.3508C174.17 26.9195 172.768 26.7039 171.388 26.7039C169.145 26.7039 167.183 27.1567 165.501 28.0624C163.862 28.968 162.482 30.154 161.361 31.6203C160.24 33.0866 159.399 34.7254 158.838 36.5367C158.321 38.348 158.062 40.1593 158.062 41.9706C158.062 43.9975 158.385 45.9598 159.032 47.8573C159.679 49.7117 160.585 51.3721 161.749 52.8384C162.957 54.2616 164.38 55.4044 166.019 56.2669C167.701 57.0863 169.533 57.496 171.517 57.496C172.94 57.496 174.385 57.2588 175.851 56.7845C177.318 56.3101 178.676 55.5554 179.927 54.5203C181.178 53.4853 182.148 52.1484 182.838 50.5096L190.148 54.7144C189.242 57.0001 187.754 58.9408 185.684 60.5364C183.657 62.1321 181.372 63.3396 178.827 64.159C176.283 64.9784 173.76 65.3881 171.259 65.3881C167.981 65.3881 164.984 64.7197 162.267 63.3828C159.55 62.0027 157.199 60.1914 155.216 57.9489C153.275 55.6632 151.744 53.1187 150.623 50.3155C149.544 47.4692 149.005 44.6013 149.005 41.7118ZM196.135 65V19.0706H216.447C218.56 19.0706 220.501 19.5018 222.269 20.3643C224.08 21.2269 225.633 22.3913 226.927 23.8576C228.264 25.3239 229.277 26.9627 229.967 28.774C230.7 30.5853 231.067 32.4397 231.067 34.3372C231.067 36.2779 230.722 38.1539 230.032 39.9652C229.385 41.7334 228.436 43.2859 227.185 44.6229C225.935 45.9598 224.469 46.9948 222.787 47.7279L233.266 65H223.434L213.989 49.6039H205.062V65H196.135ZM205.062 41.7765H216.253C217.374 41.7765 218.366 41.4531 219.229 40.8062C220.091 40.1162 220.781 39.2105 221.299 38.0892C221.816 36.9679 222.075 35.7173 222.075 34.3372C222.075 32.871 221.773 31.5987 221.169 30.5206C220.566 29.3993 219.789 28.5152 218.841 27.8683C217.935 27.2214 216.943 26.898 215.865 26.898H205.062V41.7765ZM241.993 19.0706L253.314 40.6768L264.829 19.0706H274.467L257.777 48.957V65H248.915V48.8277L232.29 19.0706H241.993ZM279.523 65V19.0706H298.995C301.108 19.0706 303.049 19.5018 304.817 20.3643C306.585 21.2269 308.116 22.3913 309.41 23.8576C310.747 25.3239 311.782 26.9627 312.515 28.774C313.248 30.5853 313.615 32.4397 313.615 34.3372C313.615 36.9248 313.011 39.383 311.803 41.7118C310.596 44.0406 308.935 45.9382 306.822 47.4045C304.709 48.8708 302.208 49.6039 299.318 49.6039H288.45V65H279.523ZM288.45 41.7765H298.801C299.879 41.7765 300.849 41.4746 301.712 40.8709C302.574 40.2671 303.264 39.4046 303.782 38.2833C304.299 37.1189 304.558 35.8035 304.558 34.3372C304.558 32.7416 304.256 31.3831 303.652 30.2618C303.092 29.1405 302.337 28.2996 301.388 27.7389C300.483 27.1783 299.491 26.898 298.413 26.898H288.45V41.7765ZM354.178 26.898H339.493V65H330.631V26.898H315.946V19.0706H354.178V26.898ZM359.88 65V19.0706H368.807V65H359.88ZM397.99 65.3234C394.626 65.3234 391.564 64.6766 388.804 63.3828C386.087 62.0459 383.737 60.2777 381.753 58.0782C379.812 55.8788 378.303 53.399 377.225 50.639C376.147 47.8358 375.608 44.9679 375.608 42.0353C375.608 38.9733 376.168 36.0623 377.29 33.3022C378.454 30.499 380.028 28.0193 382.012 25.8629C384.039 23.6635 386.411 21.9385 389.128 20.6878C391.888 19.394 394.907 18.7471 398.184 18.7471C401.505 18.7471 404.524 19.4156 407.241 20.7525C410.001 22.0894 412.351 23.8791 414.292 26.1217C416.233 28.3643 417.742 30.8656 418.82 33.6257C419.898 36.3857 420.437 39.2321 420.437 42.1647C420.437 45.1835 419.877 48.0945 418.755 50.8977C417.634 53.6578 416.06 56.1376 414.033 58.337C412.049 60.4933 409.677 62.1968 406.917 63.4475C404.2 64.6981 401.225 65.3234 397.99 65.3234ZM398.055 57.4313C400.211 57.4313 402.13 57.0001 403.812 56.1376C405.494 55.2319 406.896 54.0459 408.017 52.5796C409.138 51.0702 409.979 49.4099 410.54 47.5986C411.144 45.7441 411.446 43.8897 411.446 42.0353C411.446 40.0515 411.122 38.1324 410.475 36.2779C409.871 34.4235 408.987 32.7847 407.823 31.3615C406.702 29.9384 405.3 28.7955 403.618 27.933C401.979 27.0705 400.125 26.6392 398.055 26.6392C395.855 26.6392 393.915 27.092 392.233 27.9977C390.594 28.8602 389.214 30.0462 388.093 31.5556C386.971 33.0219 386.109 34.6607 385.505 36.472C384.944 38.2833 384.664 40.1377 384.664 42.0353C384.664 44.0191 384.966 45.9382 385.57 47.7926C386.174 49.6471 387.036 51.2859 388.157 52.709C389.322 54.1322 390.723 55.275 392.362 56.1376C394.044 57.0001 395.942 57.4313 398.055 57.4313ZM397.149 47.9867H405.559L420.696 65H412.287L397.149 47.9867ZM446.694 65.3234C443.028 65.3234 439.901 64.7197 437.314 63.5121C434.769 62.2615 432.699 60.558 431.104 58.4017C429.551 56.2454 428.408 53.8087 427.675 51.0918C426.942 48.3317 426.575 45.4638 426.575 42.4881V19.0706H435.502V42.4881C435.502 44.3857 435.675 46.2401 436.02 48.0514C436.408 49.8196 437.033 51.4152 437.896 52.8384C438.758 54.2616 439.901 55.3828 441.324 56.2022C442.748 57.0216 444.516 57.4313 446.629 57.4313C448.785 57.4313 450.575 57.0216 451.998 56.2022C453.464 55.3397 454.607 54.1969 455.427 52.7737C456.289 51.3505 456.915 49.7549 457.303 47.9867C457.691 46.1754 457.885 44.3425 457.885 42.4881V19.0706H466.747V42.4881C466.747 45.6363 466.359 48.5905 465.583 51.3505C464.85 54.1106 463.664 56.5473 462.025 58.6604C460.429 60.7305 458.359 62.3693 455.815 63.5768C453.27 64.7412 450.23 65.3234 446.694 65.3234ZM507.631 57.1726V65H475.739V19.0706H507.049V26.898H484.666V37.9598H504.008V45.2051H484.666V57.1726H507.631Z" fill="url(#paint1_linear_220_2)"/>
<defs>
<filter id="filter0_ii_220_2" x="0.67461" y="0.711785" width="116.415" height="95.4653" filterUnits="userSpaceOnUse" color-interpolation-filters="sRGB">
<feFlood flood-opacity="0" result="BackgroundImageFix"/>
<feBlend mode="normal" in="SourceGraphic" in2="BackgroundImageFix" result="shape"/>
<feColorMatrix in="SourceAlpha" type="matrix" values="0 0 0 0 0 0 0 0 0 0 0 0 0 0 0 0 0 0 127 0" result="hardAlpha"/>
<feOffset dx="0.968879" dy="-0.968879"/>
<feGaussianBlur stdDeviation="1.28723"/>
<feComposite in2="hardAlpha" operator="arithmetic" k2="-1" k3="1"/>
<feColorMatrix type="matrix" values="0 0 0 0 0.0627451 0 0 0 0 0.0666667 0 0 0 0 0.0666667 0 0 0 0.64 0"/>
<feBlend mode="normal" in2="shape" result="effect1_innerShadow_220_2"/>
<feColorMatrix in="SourceAlpha" type="matrix" values="0 0 0 0 0 0 0 0 0 0 0 0 0 0 0 0 0 0 127 0" result="hardAlpha"/>
<feOffset dx="-0.415234" dy="1.10729"/>
<feGaussianBlur stdDeviation="2.1869"/>
<feComposite in2="hardAlpha" operator="arithmetic" k2="-1" k3="1"/>
<feColorMatrix type="matrix" values="0 0 0 0 0.337255 0 0 0 0 0.4 0 0 0 0 0.964706 0 0 0 0.76 0"/>
<feBlend mode="normal" in2="effect1_innerShadow_220_2" result="effect2_innerShadow_220_2"/>
</filter>
<linearGradient id="paint0_linear_220_2" x1="93.1508" y1="9.06594" x2="-7.95864" y2="104.154" gradientUnits="userSpaceOnUse">
<stop stop-color="#4B57AA"/>
<stop offset="1" stop-color="#1D0C46"/>
</linearGradient>
<linearGradient id="paint1_linear_220_2" x1="333.971" y1="18.9232" x2="333.971" y2="77.9325" gradientUnits="userSpaceOnUse">
<stop stop-color="#4B57AA"/>
<stop offset="1" stop-color="#1D0C46"/>
</linearGradient>
</defs>
</svg>
